<svg aria-hidden="true" style="position: absolute; width: 0; height: 0; overflow: hidden;" version="1.1" xmlns="http://www.w3.org/2000/svg" xmlns:xlink="http://www.w3.org/1999/xlink">
<defs>
<symbol id="icon-CancelFilled" viewBox="0 0 32 32">
<path d="M16 2.667c-7.387 0-13.333 5.947-13.333 13.333 0 7.373 5.947 13.333 13.333 13.333 7.373 0 13.333-5.96 13.333-13.333 0-7.387-5.96-13.333-13.333-13.333zM22.667 20.787l-1.88 1.88-4.787-4.8-4.8 4.8-1.867-1.88 4.787-4.787-4.787-4.8 1.867-1.867 4.8 4.787 4.787-4.787 1.88 1.867-4.8 4.8 4.8 4.787z"></path>
</symbol>
<symbol id="icon-ErrorOutline" viewBox="0 0 32 32">
<path fill="#d32f2f" style="fill: var(--color1, #d32f2f)" d="M14.662 20h2.662v2.662h-2.662v-2.662zM14.662 9.324h2.662v8h-2.662v-8zM15.985 2.662c-7.36 0-13.324 5.978-13.324 13.338s5.964 13.324 13.324 13.324c7.36 0 13.338-5.964 13.338-13.324s-5.978-13.338-13.338-13.338zM16 26.662c-0.004 0-0.009 0-0.015 0-5.888 0-10.662-4.773-10.662-10.662v0c0-5.905 4.771-10.676 10.676-10.676 0 0 0 0 0 0 5.888 0 10.662 4.773 10.662 10.662 0 0.005 0 0.010 0 0.015v-0.001c0 5.891-4.771 10.662-10.662 10.662z"></path>
</symbol>
<symbol id="icon-WarningAmberOutlined" viewBox="0 0 32 32">
<path fill="#ef6c00" style="fill: var(--color2, #ef6c00)" d="M16 3.331l-14.676 25.324h29.338l-14.662-25.324zM16 8.64l10.036 17.353h-20.087l10.051-17.353zM14.662 13.993h2.662v6.662h-2.662v-6.662zM14.662 21.993v2.662h2.662v-2.662h-2.662z"></path>
</symbol>
<symbol id="icon-CheckCircleOutlined" viewBox="0 0 32 32">
<path fill="#2e7d32" style="fill: var(--color3, #2e7d32)" d="M22.109 10.095l-8.785 8.785-4.785-4.771-1.876 1.891 6.662 6.662 10.676-10.662-1.891-1.905zM16 2.662c-7.366 0-13.338 5.972-13.338 13.338v0c0 7.36 5.964 13.324 13.338 13.324 7.345 0 13.324-5.964 13.324-13.324s-5.978-13.338-13.324-13.338zM16 26.662c-0.004 0-0.009 0-0.015 0-5.888 0-10.662-4.773-10.662-10.662v0c0-5.905 4.771-10.676 10.676-10.676 0 0 0 0 0 0 5.888 0 10.662 4.773 10.662 10.662 0 0.005 0 0.010 0 0.015v-0.001c0 5.891-4.771 10.662-10.662 10.662z"></path>
</symbol>
<symbol id="icon-InfoOutlined" viewBox="0 0 32 32">
<path fill="#0288d1" style="fill: var(--color4, #0288d1)" d="M14.662 9.324h2.662v2.676h-2.662v-2.676zM14.662 14.662h2.662v8h-2.662v-8zM15.985 2.662c-7.36 0-13.324 5.964-13.324 13.338 0 7.345 5.964 13.324 13.324 13.324s13.338-5.978 13.338-13.324c0-7.366-5.972-13.338-13.338-13.338v0zM15.985 26.662c-5.876 0-10.662-4.785-10.662-10.662 0-5.891 4.785-10.676 10.662-10.676 5.891 0 10.676 4.785 10.676 10.676 0 5.876-4.785 10.662-10.676 10.662z"></path>
</symbol>
<symbol id="icon-arrow" viewBox="0 0 32 32">
<path d="M19.2 6.4l-2.256 2.24 8.928 8.96h-19.472v3.2h19.472l-8.928 8.944 2.256 2.256 12.8-12.8-12.8-12.8z"></path>
</symbol>
<symbol id="icon-logo" viewBox="0 0 32 32">
<path d="M26.272 20.704c0.128-0.080 0.24-0.176 0.304-0.304 0.080-0.128 0.112-0.272 0.112-0.416l0.016-4.832c0-0.144 0.048-0.288 0.112-0.416 0.080-0.128 0.192-0.224 0.32-0.304l2.608-1.504c0.128-0.064 0.272-0.096 0.416-0.096s0.288 0.032 0.416 0.112c0.128 0.064 0.224 0.176 0.304 0.304s0.112 0.256 0.112 0.416v8.768c0 0.144-0.032 0.288-0.112 0.416s-0.176 0.224-0.304 0.304l-9.872 5.664c-0.128 0.064-0.272 0.112-0.416 0.112s-0.288-0.048-0.416-0.112l-7.728-4.432c-0.133-0.072-0.242-0.175-0.318-0.3l-0.002-0.004c-0.066-0.12-0.107-0.263-0.112-0.414l-0-0.002v-4.416c0-0.016 0.016-0.016 0.016-0.016h0.016v-0.016l6.368-3.664c0.016 0 0.016-0.016 0-0.016l0.016-4.336c0-0.144-0.048-0.288-0.112-0.416-0.073-0.128-0.176-0.231-0.3-0.302l-0.004-0.002c-0.114-0.070-0.253-0.112-0.401-0.112-0.005 0-0.010 0-0.015 0h0.001c-0.16 0-0.304 0.032-0.432 0.112l-4.736 2.72c-0.128 0.080-0.272 0.112-0.416 0.112s-0.288-0.032-0.416-0.112l-4.752-2.736c-0.12-0.066-0.263-0.107-0.414-0.112l-0.002-0c-0.144 0-0.288 0.048-0.416 0.112-0.128 0.080-0.224 0.192-0.304 0.304-0.080 0.128-0.112 0.272-0.112 0.416v7.84c0 0.144-0.032 0.288-0.112 0.416-0.064 0.128-0.176 0.24-0.304 0.304-0.128 0.080-0.272 0.112-0.416 0.112s-0.288-0.032-0.416-0.112l-2.64-1.504c-0.125-0.077-0.227-0.179-0.302-0.3l-0.002-0.004c-0.070-0.114-0.112-0.253-0.112-0.401 0-0.005 0-0.010 0-0.015v0.001l0.016-13.696c0-0.144 0.048-0.288 0.112-0.416 0.080-0.128 0.192-0.224 0.32-0.304 0.106-0.070 0.237-0.112 0.377-0.112 0.008 0 0.016 0 0.024 0l-0.001-0c0.16 0 0.304 0.032 0.416 0.112l9.040 5.184c0.128 0.080 0.272 0.112 0.416 0.112s0.288-0.032 0.416-0.112l9.040-5.184c0.128-0.080 0.272-0.112 0.416-0.112s0.288 0.032 0.416 0.112c0.128 0.080 0.224 0.176 0.304 0.304s0.112 0.272 0.112 0.416v13.696c0 0.144-0.032 0.288-0.112 0.416s-0.176 0.24-0.304 0.304l-4.736 2.736c-0.128 0.064-0.224 0.176-0.304 0.304s-0.112 0.272-0.112 0.416 0.032 0.288 0.112 0.416c0.080 0.128 0.176 0.224 0.304 0.304l2.608 1.488c0.128 0.064 0.272 0.112 0.416 0.112s0.288-0.048 0.416-0.112l5.568-3.2zM26.832 8.416c0 0.144 0.032 0.288 0.112 0.416 0.064 0.128 0.176 0.24 0.304 0.304 0.128 0.080 0.272 0.112 0.416 0.112s0.288-0.048 0.416-0.112l2.512-1.504c0.238-0.155 0.395-0.419 0.4-0.719v-3.057c0-0.144-0.048-0.288-0.112-0.416-0.073-0.128-0.176-0.231-0.3-0.302l-0.004-0.002c-0.123-0.070-0.27-0.112-0.427-0.112-0.002 0-0.003 0-0.005 0h0c-0.144 0-0.288 0.048-0.416 0.128l-2.496 1.488c-0.128 0.080-0.224 0.176-0.304 0.304-0.064 0.128-0.096 0.272-0.096 0.416v3.056z"></path>
</symbol>
<symbol id="icon-back" viewBox="0 0 32 32">
<path fill="#fff" style="fill: var(--color1, #fff)" d="M28 14.667h-18.893l4.773-4.787-1.88-1.88-8 8 8 8 1.88-1.88-4.773-4.787h18.893v-2.667z"></path>
</symbol>
<symbol id="icon-star" viewBox="0 0 32 32">
<path fill="#2196f3" style="fill: var(--color2, #2196f3)" d="M16 23.693l8.24 4.973-2.187-9.373 7.28-6.307-9.587-0.813-3.747-8.84-3.76 8.84-9.573 0.813 7.267 6.307-2.187 9.373 8.253-4.973z"></path>
</symbol>
</defs>
</svg>  


